<svg width="50" height="51" viewBox="0 0 50 51" fill="none" xmlns="http://www.w3.org/2000/svg">
<path fill-rule="evenodd" clip-rule="evenodd" d="M24.6181 38.7287C32.055 38.7287 38.0838 32.6999 38.0838 25.263C38.0838 17.8261 32.055 11.7973 24.6181 11.7973C17.1812 11.7973 11.1524 17.8261 11.1524 25.263C11.1524 32.6999 17.1812 38.7287 24.6181 38.7287ZM24.6181 42.4866C34.1304 42.4866 41.8416 34.7753 41.8416 25.263C41.8416 15.7507 34.1304 8.03941 24.6181 8.03941C15.1058 8.03941 7.39457 15.7507 7.39457 25.263C7.39457 34.7753 15.1058 42.4866 24.6181 42.4866Z" fill="#A8E4F2"/>
<path d="M35.0001 38.7572L37.738 36.1833L47.7283 46.8105C48.4391 47.5665 48.4023 48.7556 47.6462 49.4664V49.4664C46.8902 50.1772 45.7011 50.1404 44.9903 49.3844L35.0001 38.7572Z" fill="#D0D5D7"/>
</svg>
